<?xml version="1.0" encoding="UTF-8"?> <svg xmlns="http://www.w3.org/2000/svg" width="236" height="106" viewBox="0 0 236 106" fill="none"> <path d="M28.4027 63.5C25.3027 64.3 23.6027 65.1 21.6027 65.6C21.4027 65.7 20.9027 65.8 20.7027 65.8L21.2027 65.1C22.1027 63.9 22.9027 62.8 23.8027 61.5C24.3027 61 24.3027 60.7 25.7027 61.2C26.8027 61.8 27.5027 62.5 28.4027 63.5ZM28.6027 63.9C29.0027 65 29.2027 66.2 29.2027 67.2C29.3027 67.2 29.7027 67.2 29.7027 67.2C29.6027 66.2 29.6027 65 28.9027 63.7C40.1027 60.4 51.6027 52.4 57.7027 41.5C62.0027 33.8 66.4027 16.7 60.0027 8.5C59.8027 8.3 59.6027 8 59.8027 7.6C60.3027 6.8 61.2027 5.59999 61.6027 4.8C61.8027 4.3 60.5027 3.5 59.7027 3.79999C59.4027 4.2 57.8027 6.8 57.3027 6.3C56.3027 5.4 55.7027 4.69999 54.5027 3.9C51.1027 1.89999 47.4027 0.899996 43.3027 0.799997C41.4027 0.799997 39.5027 0.999995 37.6027 1.3C35.1027 1.6 32.6027 2.1 30.3027 3.1C27.5027 4.2 24.7027 5.59999 22.2027 7.2C19.6027 9 17.1027 10.8 14.9027 13C13.5027 14.6 12.1027 16.2 10.8027 17.9C9.50273 19.3 8.40273 20.8 7.50273 22.4C6.40273 24 5.50273 25.7 4.60273 27.3C2.70273 31 1.40273 34.7 0.702734 38.7C0.202734 42.1 0.302734 45.4 1.20273 48.6C2.50273 53.1 5.40273 56.3 9.70273 57.9C11.3027 58.6 12.7027 59.2 14.4027 59.6C16.6027 60.1 18.8027 60.2 21.1027 60.6C21.6027 60.6 21.2027 60.8 20.7027 61.7C19.6027 63.4 18.1027 65.2 17.1027 67.3C16.7027 67.9 18.3027 68.5 18.8027 68.3C19.3027 67.8 19.9027 67.3 20.4027 66.8C21.9027 65.8 23.6027 65.4 25.2027 64.8C25.7027 64.6 28.0027 64 28.6027 63.9ZM43.3027 1.7C46.2027 1.7 49.1027 2.1 51.9027 3.4C54.1027 4.2 55.6027 5.4 57.2027 6.9C57.3027 6.99999 55.7027 9 54.8027 10.2C46.7027 21.8 32.0027 44.1 25.2027 54.9C24.0027 56.7 21.9027 60.2 21.6027 60.2C20.7027 60.2 18.6027 59.9 17.1027 59.7C13.7027 59.1 10.8027 58.4 7.70273 56.5C6.20273 55.6 5.00273 54.5 3.90273 53.1C1.60273 50 1.40273 46.5 1.80273 42.7C2.20273 40.1 3.10273 37.6 3.80273 35.1C4.80273 32.5 6.00273 30 7.30273 27.6C9.50273 23.4 12.4027 19.6 15.4027 15.9C18.3027 12.5 21.8027 9.4 25.8027 6.7C28.7027 4.9 31.7027 3.4 35.0027 2.6C37.7027 2 40.3027 1.5 43.3027 1.7ZM59.3027 8.5C66.0027 16.8 61.7027 32.5 57.1027 41.4C51.6027 52 40.0027 59.7 28.8027 63.4C27.7027 62 26.7027 60.9 24.7027 60.4L25.5027 59.2C32.6027 48.3 50.5027 21.7 58.7027 9.2C58.8027 9 59.2027 8.5 59.3027 8.5ZM61.3777 54.5C49.2777 68.2 34.3777 85.4 31.1777 97.2C29.0777 105.1 35.6777 101.4 38.6777 97.5C44.5777 90.2 56.3777 69.5 63.3777 58.1C65.4777 54.7 67.8777 50.4 70.5777 47.3C70.9777 46.9 71.3777 46.5 71.7777 46.1C72.7777 45.3 73.6777 44.3 74.8777 43.4C76.5777 42.2 78.8777 40.2 80.6777 39.1C84.6777 36.7 77.9777 44.7 77.3777 45.4C77.1777 45.7 76.5777 46.3 75.7777 46.7C74.2777 47.4 72.5777 48.4 71.6777 49.7C69.8777 53.7 77.3777 48.2 78.5777 47.1C78.7777 46.9 78.9777 46.7 79.0777 46.7C79.5777 46.7 79.9777 46.6 80.4777 46.6C83.5777 46.6 87.9777 45.5 90.8777 44.5C93.1777 44 91.7777 43.6 90.2777 44.4C88.0777 45.3 83.9777 46 81.3777 46.3C80.8777 46.3 79.1777 46.5 79.3777 46.4C80.5777 45.6 83.6777 40.8 84.0777 39.4C84.3777 38.3 83.2777 37.5 81.8777 38C80.2777 38.6 78.4777 40.2 77.2777 41.1C75.3777 42.5 73.3777 44.1 71.5777 45.6L73.6777 41.8C74.4777 40.4 75.1777 39.2 76.0777 37.7C77.5777 35.1 78.9777 32.5 80.4777 29.8C80.6777 29.3 81.7777 26.9 81.1777 26.7C80.2777 26.3 79.3777 28.2 78.7777 29.1C77.5777 30.8 76.4777 32.8 74.8777 34.4C71.6777 37.5 67.7777 41.3 64.5777 43.9L64.6777 44.2C67.5777 42.1 72.4777 37.3 75.2777 35C71.8777 40.3 68.8777 45.4 65.6777 49.9C64.6777 51.3 63.1777 52.5 61.3777 54.5ZM42.7777 77.9C48.4777 70.3 57.6777 58.8 64.6777 51.7L60.7777 57.7C52.4777 70.8 45.3777 84.5 36.4777 98.2C34.9777 100.4 31.1777 103.4 31.3777 99.3C31.6777 94.2 37.0777 85.4 42.7777 77.9ZM76.3777 46.9C76.0777 48.2 71.0777 51.6 71.7777 50C71.9777 49.2 74.5777 47.4 76.3777 46.9ZM102.04 34.9C96.6402 34 92.7402 40.6 90.7402 44.7C89.7402 46.7 89.5402 51.6 92.7402 52.2C93.7402 52.3 94.7402 52.1 95.5402 51.4C99.0402 48.5 103.74 46.5 108.04 44.2C108.74 43.8 108.24 43.6 107.74 43.9C103.64 46.1 99.6402 47.7 96.2402 50.4C95.1402 51.2 94.4402 52 93.1402 51.9C89.6402 51.9 94.3402 39.8 98.5402 39.3C102.14 39.1 105.14 35.2 102.04 34.9ZM101.84 35.7C104.04 35.3 102.54 37.1 101.74 37.6C100.54 38.7 97.3402 39.4 98.0402 38.7L98.6402 38.1C99.5402 37.1 100.54 36 101.84 35.7ZM106.742 45.3C104.942 47.9 102.942 54 107.942 54.7C111.742 55.1 120.342 47.4 124.942 44C124.942 43.9 124.842 43.9 124.842 43.9C120.842 45.9 110.742 56.8 107.142 53.6C106.042 52.2 106.942 50.1 107.742 48.7C109.042 46.6 110.442 44.6 111.842 42.5C114.942 38 118.342 36.8 117.242 39.1C117.142 39.3 116.742 39.9 116.542 40.1C116.542 40.2 116.542 40.4 116.742 40.4C117.542 39.7 118.142 38.6 117.842 37.8C117.642 37 115.742 37.1 115.142 37.2C112.642 37.7 110.842 39.7 109.342 41.6L106.742 45.3ZM123.734 45.3C121.934 47.9 119.934 54 124.934 54.7C128.734 55.1 137.334 47.4 141.934 44C141.934 43.9 141.834 43.9 141.834 43.9C137.834 45.9 127.734 56.8 124.134 53.6C123.034 52.2 123.934 50.1 124.734 48.7C126.034 46.6 127.434 44.6 128.834 42.5C131.934 38 135.334 36.8 134.234 39.1C134.134 39.3 133.734 39.9 133.534 40.1C133.534 40.2 133.534 40.4 133.734 40.4C134.534 39.7 135.134 38.6 134.834 37.8C134.634 37 132.734 37.1 132.134 37.2C129.634 37.7 127.834 39.7 126.334 41.6L123.734 45.3ZM152.226 43.3C158.226 42.8 159.726 42.7 165.026 42.5C165.126 42.3 165.026 42.2 165.026 42.2C161.026 42.4 158.426 41.1 152.226 42.3V43.3ZM196.667 45C198.667 42.9 197.867 43.2 195.667 45.3C189.867 49.1 185.367 56 180.867 59.5C176.867 63.1 177.167 62.4 177.367 60C177.867 57.5 178.567 56.7 179.567 54.3C180.567 51 181.967 47.8 180.667 44.6C180.467 44.2 180.067 43.8 180.367 43.5C180.467 43.4 181.967 42.7 182.367 42.5C185.067 41 187.167 38.4 188.767 35.8C188.667 35.6 188.267 35.6 188.267 35.6C186.467 38.6 183.567 41.8 180.367 42.9C179.867 42.9 183.067 39.7 181.167 39.4C178.567 39 175.567 42.3 173.767 43.7C172.667 44.3 172.467 44.9 173.767 44.1C174.967 43.3 180.267 38.2 178.767 41C177.467 42.9 175.767 44.6 174.367 46.6C173.967 47.2 173.067 48.9 175.367 49.4C176.167 49.9 178.267 45.7 178.467 45.2C178.867 44.3 179.467 43.7 179.867 44.2C182.267 46.5 177.367 52.8 175.967 55.7C173.967 59.8 175.267 65.6 180.167 61C183.867 58.1 190.367 49.7 194.267 46.9C195.067 46.3 195.967 45.7 196.667 45ZM213.093 44.2C215.793 42.9 213.893 44.5 212.593 44.8C210.593 45.6 208.593 45.9 206.593 46.1C205.693 46.2 204.893 46.3 203.893 46.1C202.593 48.1 200.893 50.1 198.993 51.4C197.793 52.2 195.793 52 195.193 50.7C194.593 48.6 196.193 45.7 197.393 44.3L198.493 42.8C195.993 39.2 197.393 33.9 202.193 33.3C207.493 32.7 207.193 41.4 204.093 45.7C204.293 45.7 204.493 45.8 204.793 45.8C207.593 45.8 210.393 45.3 213.093 44.2ZM199.693 34.6C197.693 36.2 196.693 39.8 198.893 42.4C200.093 41.3 201.193 40.2 202.493 39.6C203.693 39.1 203.693 40.6 203.093 41.2C202.393 41.9 201.793 42.6 201.093 43.4L200.593 44C200.893 44.2 201.493 44.8 202.093 45.1C202.693 45.4 203.393 45.6 203.693 45.6C206.693 42.4 207.693 30 199.693 34.6ZM203.393 46C203.093 46 202.393 45.7 201.793 45.4C201.193 45.1 200.593 44.6 200.293 44.4C200.193 44.5 199.793 45 199.293 45.8C198.293 47.4 197.293 48.7 196.993 50.1C196.893 51.2 197.493 51.9 198.993 50.9C200.493 50 201.693 48.4 202.693 47L203.393 46ZM220.596 45.4C220.996 45.5 219.896 46.6 219.496 47.3C219.296 47.6 219.096 47.8 218.896 48.1C217.696 49.9 216.496 51.8 215.296 53.6C215.096 53.9 214.796 54.2 214.396 54.4C213.396 54.9 212.296 55.3 211.296 55.9C208.596 57.4 205.896 58.9 203.296 60.5C198.996 63 195.596 66.5 191.796 69.6C190.596 70.6 189.596 71.7 188.596 72.8C185.296 76.3 182.796 80.5 180.296 84.7C178.796 87.3 177.696 90.1 176.996 93C176.096 96.2 174.896 100.4 177.596 103.1C177.896 103.4 178.296 103.7 178.896 103.6C180.196 103.3 181.396 102.8 182.396 101.9C183.796 100.7 184.996 99.5 186.296 98.2C187.196 97.4 187.996 96.5 188.796 95.6C189.496 94.9 190.096 94.2 190.696 93.5C192.396 91.5 194.196 89.6 195.696 87.5C198.296 84.1 200.496 80.4 203.096 77.1C204.496 75.1 205.796 73 207.196 71C208.796 68.5 210.496 66 212.096 63.5C214.396 60.1 216.696 56.7 218.996 53.3C219.196 52.9 219.596 52.6 219.996 52.4C220.996 51.9 221.996 51.4 222.996 50.9C226.296 49.1 229.396 47.6 232.896 45.3C235.296 44.3 235.996 42.8 232.996 44.7C231.996 45.4 221.396 51.6 220.096 51.6C219.996 51.5 220.796 50.2 220.996 49.8C221.996 48.2 223.096 46.5 224.096 44.9C224.796 44 225.496 43.2 226.096 42.3C227.596 40.2 229.096 38.1 230.596 36C231.296 35.2 230.096 34.1 229.096 35.4C225.996 38.3 223.396 41.6 220.396 44.7C219.396 45.8 218.396 46.9 217.296 47.9C216.496 48.6 215.496 49.1 214.596 49.7C213.296 50.5 214.196 48.1 214.496 47.6C214.896 46.9 215.496 46.1 215.996 45.4C217.396 43 219.396 41.1 221.296 39.3C221.596 39 221.896 38.8 222.196 38.6C222.696 38.3 223.196 38.6 223.296 39.2C223.196 39.6 223.696 40.3 223.796 39.2C224.096 37.4 221.796 37.4 220.796 37.8C219.996 38.3 219.096 38.8 218.396 39.4C217.496 40.2 216.596 41.1 215.796 41.9C214.696 43 214.096 44 213.496 45.6C213.296 46.2 213.096 46.8 212.796 47.5C211.196 52.4 215.396 50.5 218.696 47.2C218.996 46.9 220.196 45.8 220.596 45.4ZM214.396 54.9C214.296 55.1 213.696 55.9 213.596 56.1C211.296 59.7 208.896 63.3 206.696 66.9C205.096 69.4 203.596 71.9 201.996 74.4C199.196 78.7 196.296 83 193.396 87.3C191.596 89.8 189.596 92.2 187.696 94.6C185.896 96.7 183.996 98.8 182.096 100.8C181.596 101.4 179.096 103.8 178.096 102.8C172.496 98 181.996 82.6 185.796 76.9C186.596 75.8 187.496 74.7 188.396 73.6C188.996 72.9 189.596 72.3 190.196 71.6C191.396 70.5 201.496 62 203.096 61.1C203.996 60.5 204.896 60.1 205.896 59.5C207.596 58.5 209.396 57.5 211.096 56.4C211.696 56.1 212.296 55.8 212.896 55.5C213.196 55.4 214.096 54.9 214.396 54.9Z" fill="#6D6D6D" fill-opacity="0.2"></path> </svg> 