<?xml version="1.0" encoding="UTF-8"?> <svg xmlns="http://www.w3.org/2000/svg" width="406" height="104" viewBox="0 0 406 104" fill="none"> <path d="M64.2934 4C61.1934 5.4 58.4934 7.29999 55.2934 9C51.5934 11 48.1934 13.4 44.9934 16.1C34.6934 24.9 27.0934 36.5 18.6934 46.8C15.7934 50.9 12.0934 54.4 8.49336 57.9C5.79336 60.4 0.293359 61 1.69336 56.3C2.79336 52.8 5.19336 49.8 7.49336 47.1C8.89336 45.6 8.99336 44.8 6.89336 46.1C3.79336 48.5 0.893359 52.1 0.693359 56.3C0.193359 61.3 5.69336 61.4 9.09336 58C22.5934 45.9 30.7934 28.8 45.5934 16.6C48.9934 13.9 52.5934 11.4 56.1934 9C56.8934 8.4 61.4934 5.9 62.1934 5.6C60.8934 6.6 58.3934 9 57.7934 9.4C56.9934 10.1 56.1934 10.7 55.2934 11.6C51.9934 14.9 48.6934 18.4 45.5934 21.9C43.0934 24.7 40.8934 27.9 38.3934 30.9C36.7934 33.1 35.3934 35.4 33.7934 37.6C32.3934 39.7 31.1934 41.8 30.0934 43.9C28.4934 46.2 25.0934 55.7 30.2934 53.2C34.8934 50.5 40.4934 41.8 44.9934 36.5C47.7934 33.2 50.4934 29.6 53.2934 26.3C61.0934 17.2 69.4934 8.69999 80.8934 3.7C81.3934 3.5 83.1934 2.69999 83.6934 2.6C66.3934 15.7 52.1934 36 46.8934 58.3C45.2934 65.7 49.1934 74.6 58.4934 71.3C61.4934 70 63.7934 67.9 64.5934 64.6C64.6934 64.3 64.6934 64 64.6934 63.6C64.5934 63.6 64.5934 63.6 64.3934 63.6C63.4934 67.4 61.3934 69.6 57.7934 71.1C51.1934 73.1 47.6934 66.5 49.1934 60C55.1934 37.6 68.8934 17.2 86.0934 2.1C86.6934 1.5 86.8934 0.699996 85.6934 1.2C81.7934 2.8 77.8934 4.09999 74.2934 6.5C66.3934 11.8 64.9934 12.9 58.9934 19.1C55.4934 23 51.9934 26.8 48.6934 30.8C43.3934 37.4 38.4934 44.5 32.6934 50.6C29.3934 53.7 27.8934 53.3 30.2934 49.2C32.3934 45.3 34.4934 41.7 36.9934 38C39.5934 34.2 42.3934 30.3 45.3934 26.5C46.7934 24.6 48.4934 22.5 49.9934 20.6C52.3934 17.8 54.6934 15 57.0934 12.3C59.6934 9.9 61.9934 7.6 64.8934 5.1C66.0934 4.4 65.0934 3.4 64.2934 4ZM83.4777 32.9C78.0777 32 74.1777 38.6 72.1777 42.7C71.1777 44.7 70.9777 49.6 74.1777 50.2C75.1777 50.3 76.1777 50.1 76.9777 49.4C80.4777 46.5 85.1777 44.5 89.4777 42.2C90.1777 41.8 89.6777 41.6 89.1777 41.9C85.0777 44.1 81.0777 45.7 77.6777 48.4C76.5777 49.2 75.8777 50 74.5777 49.9C71.0777 49.9 75.7777 37.8 79.9777 37.3C83.5777 37.1 86.5777 33.2 83.4777 32.9ZM83.2777 33.7C85.4777 33.3 83.9777 35.1 83.1777 35.6C81.9777 36.7 78.7777 37.4 79.4777 36.7L80.0777 36.1C80.9777 35.1 81.9777 34 83.2777 33.7ZM88.1793 43.3C86.3793 45.9 84.3793 52 89.3793 52.7C93.1793 53.1 101.779 45.4 106.379 42C106.379 41.9 106.279 41.9 106.279 41.9C102.279 43.9 92.1793 54.8 88.5793 51.6C87.4793 50.2 88.3793 48.1 89.1793 46.7C90.4793 44.6 91.8793 42.6 93.2793 40.5C96.3793 36 99.7793 34.8 98.6793 37.1C98.5793 37.3 98.1793 37.9 97.9793 38.1C97.9793 38.2 97.9793 38.4 98.1793 38.4C98.9793 37.7 99.5793 36.6 99.2793 35.8C99.0793 35 97.1793 35.1 96.5793 35.2C94.0793 35.7 92.2793 37.7 90.7793 39.6L88.1793 43.3ZM112.771 40.8C113.071 40.3 116.271 37.6 115.671 39.4C115.571 39.9 115.271 40.3 115.071 40.6C114.371 41.8 113.571 42.9 112.971 44.1C112.471 44.9 113.471 46.2 114.771 44.8C115.471 44.1 115.971 43.2 116.671 42.4C118.871 39.5 131.671 29.7 129.571 33.4C127.071 37.2 124.471 40.9 121.471 45.1C119.771 47.5 118.271 49.9 117.571 52.6C117.271 53.8 117.071 55 117.271 56.1C118.771 61.7 124.771 58.2 127.471 54.9C129.871 52.2 132.071 49.5 134.371 46.8C140.371 40.3 140.271 39.7 133.771 46.8C131.371 49.5 128.971 52.3 126.671 55C119.871 62.1 116.471 57.8 121.571 50.1C124.571 45.3 127.671 40.5 130.671 35.7C131.671 34.4 132.471 30.9 129.571 32.1C125.071 33.9 121.871 37.5 117.871 40.3C117.471 40.6 116.471 41.3 116.671 40.5C116.771 39.6 117.571 38 115.871 38.2C114.871 38.4 113.471 39.6 112.571 40.2C112.871 39.2 113.971 36.8 113.171 36C112.171 35 108.871 38.8 107.771 40C105.971 41.9 105.971 42.6 106.371 42.2C108.171 40.4 109.471 38.1 111.671 36.6C113.071 35.6 112.371 37.4 111.971 38.1C110.571 40.3 109.271 42.4 107.871 44.5C106.771 45.9 108.171 47.5 109.371 45.6C110.571 43.9 111.571 42.3 112.771 40.8ZM154.198 42.2C156.898 40.9 154.998 42.5 153.698 42.8C151.698 43.6 149.698 43.9 147.698 44.1C146.798 44.2 145.998 44.3 144.998 44.1C143.698 46.1 141.998 48.1 140.098 49.4C138.898 50.2 136.898 50 136.298 48.7C135.698 46.6 137.298 43.7 138.498 42.3L139.598 40.8C137.098 37.2 138.498 31.9 143.298 31.3C148.598 30.7 148.298 39.4 145.198 43.7C145.398 43.7 145.598 43.8 145.898 43.8C148.698 43.8 151.498 43.3 154.198 42.2ZM140.798 32.6C138.798 34.2 137.798 37.8 139.998 40.4C141.198 39.3 142.298 38.2 143.598 37.6C144.798 37.1 144.798 38.6 144.198 39.2C143.498 39.9 142.898 40.6 142.198 41.4L141.698 42C141.998 42.2 142.598 42.8 143.198 43.1C143.798 43.4 144.498 43.6 144.798 43.6C147.798 40.4 148.798 28 140.798 32.6ZM144.498 44C144.198 44 143.498 43.7 142.898 43.4C142.298 43.1 141.698 42.6 141.398 42.4C141.298 42.5 140.898 43 140.398 43.8C139.398 45.4 138.398 46.7 138.098 48.1C137.998 49.2 138.598 49.9 140.098 48.9C141.598 48 142.798 46.4 143.798 45L144.498 44ZM189.572 42.3L191.972 40.8C192.672 40.9 191.672 42 191.572 42.3C190.972 43.2 189.972 44.1 189.472 45.1C188.972 45.8 191.372 47.4 192.172 45.9C193.272 43.8 194.572 41.6 197.172 39.6C198.872 38.3 200.372 37 202.372 36C203.172 35.8 203.172 36.3 202.972 36.5L201.972 38.2C200.172 40.8 198.272 43.4 196.472 45.9C195.172 47.8 193.972 49.7 193.372 51.9C193.172 52.8 192.972 53.8 193.172 54.7C193.372 56.8 195.572 57.8 197.872 56.7C203.572 54.2 209.772 46.8 213.572 42.5C214.172 41.8 213.972 41.7 213.272 42.3C212.472 43 202.672 54.9 196.872 56.7C194.872 57.3 193.772 55.8 196.972 49.9C199.372 46 201.972 42.2 204.372 38.4C205.472 37.1 205.572 34.9 202.772 35.5C201.772 35.8 200.772 36.3 199.972 36.9C197.772 38.4 195.772 40.3 193.572 41.8C193.372 42 192.972 42.2 192.772 42.3L192.672 42.2C192.772 41.8 192.772 41.5 192.872 41.1C192.972 40.5 192.672 40.3 191.972 40.4C191.172 40.5 190.072 41.5 189.372 42L189.572 42.3ZM210.393 52.5C198.293 66.2 183.393 83.4 180.193 95.2C178.093 103.1 184.693 99.4 187.693 95.5C193.593 88.2 205.393 67.5 212.393 56.1C214.493 52.7 216.893 48.4 219.593 45.3C219.993 44.9 220.393 44.5 220.793 44.1C221.793 43.3 222.693 42.3 223.893 41.4C225.593 40.2 227.893 38.2 229.693 37.1C233.693 34.7 226.993 42.7 226.393 43.4C226.193 43.7 225.593 44.3 224.793 44.7C223.293 45.4 221.593 46.4 220.693 47.7C218.893 51.7 226.393 46.2 227.593 45.1C227.793 44.9 227.993 44.7 228.093 44.7C228.593 44.7 228.993 44.6 229.493 44.6C232.593 44.6 236.993 43.5 239.893 42.5C242.193 42 240.793 41.6 239.293 42.4C237.093 43.3 232.993 44 230.393 44.3C229.893 44.3 228.193 44.5 228.393 44.4C229.593 43.6 232.693 38.8 233.093 37.4C233.393 36.3 232.293 35.5 230.893 36C229.293 36.6 227.493 38.2 226.293 39.1C224.393 40.5 222.393 42.1 220.593 43.6L222.693 39.8C223.493 38.4 224.193 37.2 225.093 35.7C226.593 33.1 227.993 30.5 229.493 27.8C229.693 27.3 230.793 24.9 230.193 24.7C229.293 24.3 228.393 26.2 227.793 27.1C226.593 28.8 225.493 30.8 223.893 32.4C220.693 35.5 216.793 39.3 213.593 41.9L213.693 42.2C216.593 40.1 221.493 35.3 224.293 33C220.893 38.3 217.893 43.4 214.693 47.9C213.693 49.3 212.193 50.5 210.393 52.5ZM191.793 75.9C197.493 68.3 206.693 56.8 213.693 49.7L209.793 55.7C201.493 68.8 194.393 82.5 185.493 96.2C183.993 98.4 180.193 101.4 180.393 97.3C180.693 92.2 186.093 83.4 191.793 75.9ZM225.393 44.9C225.093 46.2 220.093 49.6 220.793 48C220.993 47.2 223.593 45.4 225.393 44.9ZM255.956 42.2C258.656 40.9 256.756 42.5 255.456 42.8C253.456 43.6 251.456 43.9 249.456 44.1C248.556 44.2 247.756 44.3 246.756 44.1C245.456 46.1 243.756 48.1 241.856 49.4C240.656 50.2 238.656 50 238.056 48.7C237.456 46.6 239.056 43.7 240.256 42.3L241.356 40.8C238.856 37.2 240.256 31.9 245.056 31.3C250.356 30.7 250.056 39.4 246.956 43.7C247.156 43.7 247.356 43.8 247.656 43.8C250.456 43.8 253.256 43.3 255.956 42.2ZM242.556 32.6C240.556 34.2 239.556 37.8 241.756 40.4C242.956 39.3 244.056 38.2 245.356 37.6C246.556 37.1 246.556 38.6 245.956 39.2C245.256 39.9 244.656 40.6 243.956 41.4L243.456 42C243.756 42.2 244.356 42.8 244.956 43.1C245.556 43.4 246.256 43.6 246.556 43.6C249.556 40.4 250.556 28 242.556 32.6ZM246.256 44C245.956 44 245.256 43.7 244.656 43.4C244.056 43.1 243.456 42.6 243.156 42.4C243.056 42.5 242.656 43 242.156 43.8C241.156 45.4 240.156 46.7 239.856 48.1C239.756 49.2 240.356 49.9 241.856 48.9C243.356 48 244.556 46.4 245.556 45L246.256 44ZM257.76 39.9C256.46 42.5 255.56 45.2 254.86 47.9C254.46 49.4 254.76 51.2 256.76 50.1C259.76 47.9 262.36 44.3 265.86 42.1C268.96 39.8 267.26 42.6 266.46 43.8C265.36 45.3 264.26 46.8 263.16 48.3C262.76 48.7 262.26 49.2 261.76 49.3C259.66 50.1 256.96 51.4 255.66 53.7C255.16 54.5 255.46 56.5 257.06 56.1C260.06 54.9 262.66 52.6 265.26 49.5C265.66 49 266.06 48.6 266.76 48.5C271.36 47.3 275.96 45.3 279.96 42.1C280.16 42.1 279.96 41.7 279.76 41.9C276.06 44.7 271.86 47 266.56 48.1C267.36 46.6 268.56 45.1 269.16 43.2C269.76 41.3 267.66 40.3 266.06 41.4C262.86 43.6 260.36 46.3 257.36 48.8C255.96 50.1 257.16 46.8 257.46 46.3C258.36 44.1 259.46 41.9 260.56 39.7C261.36 38.1 262.36 36.6 263.26 35.2C263.56 34.8 263.96 34.5 264.36 34.3C265.66 33.6 266.96 33 268.26 32.3C270.06 31.3 271.86 30.3 273.56 29.3C276.86 27.1 280.26 25 283.26 22.5C287.26 19.1 292.66 14.9 294.46 9.1C295.06 4.3 288.66 6.5 286.16 7.7C284.46 8.6 282.86 9.6 281.46 10.9C280.36 11.8 279.16 12.7 278.16 13.7C275.66 16.1 273.26 18.6 270.86 21.1C269.16 22.9 267.56 24.8 266.06 26.8C264.26 29.4 262.56 32.1 260.76 34.7L257.76 39.9ZM264.66 33.3C264.96 32.6 265.26 32.1 265.56 31.7C266.86 29.9 268.16 28 269.56 26.3C270.96 24.6 272.46 23 273.96 21.3C275.56 19.5 277.26 17.8 278.86 16C280.66 14 282.66 12.2 284.76 10.6C285.66 9.9 286.56 9.1 287.46 8.6C288.86 7.9 294.26 5.4 293.86 9C292.86 13.8 285.66 20.1 281.66 23C276.56 26.7 270.66 30.9 264.66 33.3ZM262.46 49.5C262.26 49.9 261.26 51 260.56 51.6C259.76 52.4 258.86 53.2 257.96 54C257.66 54.2 256.06 55.8 255.86 54.8C255.76 54 256.66 52.9 257.36 52.3C258.76 51.1 260.66 50 262.46 49.5ZM290.704 32.9C285.304 32 281.404 38.6 279.404 42.7C278.404 44.7 278.204 49.6 281.404 50.2C282.404 50.3 283.404 50.1 284.204 49.4C287.704 46.5 292.404 44.5 296.704 42.2C297.404 41.8 296.904 41.6 296.404 41.9C292.304 44.1 288.304 45.7 284.904 48.4C283.804 49.2 283.104 50 281.804 49.9C278.304 49.9 283.004 37.8 287.204 37.3C290.804 37.1 293.804 33.2 290.704 32.9ZM290.504 33.7C292.704 33.3 291.204 35.1 290.404 35.6C289.204 36.7 286.004 37.4 286.704 36.7L287.304 36.1C288.204 35.1 289.204 34 290.504 33.7ZM303.206 43.4C303.606 43.5 302.506 44.6 302.106 45.3C301.906 45.6 301.706 45.8 301.506 46.1C300.306 47.9 299.106 49.8 297.906 51.6C297.706 51.9 297.406 52.2 297.006 52.4C296.006 52.9 294.906 53.3 293.906 53.9C291.206 55.4 288.506 56.9 285.906 58.5C281.606 61 278.206 64.5 274.406 67.6C273.206 68.6 272.206 69.7 271.206 70.8C267.906 74.3 265.406 78.5 262.906 82.7C261.406 85.3 260.306 88.1 259.606 91C258.706 94.2 257.506 98.4 260.206 101.1C260.506 101.4 260.906 101.7 261.506 101.6C262.806 101.3 264.006 100.8 265.006 99.9C266.406 98.7 267.606 97.5 268.906 96.2C269.806 95.4 270.606 94.5 271.406 93.6C272.106 92.9 272.706 92.2 273.306 91.5C275.006 89.5 276.806 87.6 278.306 85.5C280.906 82.1 283.106 78.4 285.706 75.1C287.106 73.1 288.406 71 289.806 69C291.406 66.5 293.106 64 294.706 61.5C297.006 58.1 299.306 54.7 301.606 51.3C301.806 50.9 302.206 50.6 302.606 50.4C303.606 49.9 304.606 49.4 305.606 48.9C308.906 47.1 312.006 45.6 315.506 43.3C317.906 42.3 318.606 40.8 315.606 42.7C314.606 43.4 304.006 49.6 302.706 49.6C302.606 49.5 303.406 48.2 303.606 47.8C304.606 46.2 305.706 44.5 306.706 42.9C307.406 42 308.106 41.2 308.706 40.3C310.206 38.2 311.706 36.1 313.206 34C313.906 33.2 312.706 32.1 311.706 33.4C308.606 36.3 306.006 39.6 303.006 42.7C302.006 43.8 301.006 44.9 299.906 45.9C299.106 46.6 298.106 47.1 297.206 47.7C295.906 48.5 296.806 46.1 297.106 45.6C297.506 44.9 298.106 44.1 298.606 43.4C300.006 41 302.006 39.1 303.906 37.3C304.206 37 304.506 36.8 304.806 36.6C305.306 36.3 305.806 36.6 305.906 37.2C305.806 37.6 306.306 38.3 306.406 37.2C306.706 35.4 304.406 35.4 303.406 35.8C302.606 36.3 301.706 36.8 301.006 37.4C300.106 38.2 299.206 39.1 298.406 39.9C297.306 41 296.706 42 296.106 43.6C295.906 44.2 295.706 44.8 295.406 45.5C293.806 50.4 298.006 48.5 301.306 45.2C301.606 44.9 302.806 43.8 303.206 43.4ZM297.006 52.9C296.906 53.1 296.306 53.9 296.206 54.1C293.906 57.7 291.506 61.3 289.306 64.9C287.706 67.4 286.206 69.9 284.606 72.4C281.806 76.7 278.906 81 276.006 85.3C274.206 87.8 272.206 90.2 270.306 92.6C268.506 94.7 266.606 96.8 264.706 98.8C264.206 99.4 261.706 101.8 260.706 100.8C255.106 96 264.606 80.6 268.406 74.9C269.206 73.8 270.106 72.7 271.006 71.6C271.606 70.9 272.206 70.3 272.806 69.6C274.006 68.5 284.106 60 285.706 59.1C286.606 58.5 287.506 58.1 288.506 57.5C290.206 56.5 292.006 55.5 293.706 54.4C294.306 54.1 294.906 53.8 295.506 53.5C295.806 53.4 296.706 52.9 297.006 52.9ZM328.107 32.9C322.707 32 318.807 38.6 316.807 42.7C315.807 44.7 315.607 49.6 318.807 50.2C319.807 50.3 320.807 50.1 321.607 49.4C325.107 46.5 329.807 44.5 334.107 42.2C334.807 41.8 334.307 41.6 333.807 41.9C329.707 44.1 325.707 45.7 322.307 48.4C321.207 49.2 320.507 50 319.207 49.9C315.707 49.9 320.407 37.8 324.607 37.3C328.207 37.1 331.207 33.2 328.107 32.9ZM327.907 33.7C330.107 33.3 328.607 35.1 327.807 35.6C326.607 36.7 323.407 37.4 324.107 36.7L324.707 36.1C325.607 35.1 326.607 34 327.907 33.7ZM353.808 41.7C353.808 41.5 349.608 44.6 348.008 46.1C346.508 47.5 342.608 51.7 340.308 51.1C337.908 50.3 340.108 46.8 341.308 44.4C343.008 41.3 345.308 38.3 347.108 35.1C347.508 34.4 346.008 34.1 345.608 34.6C344.308 36 343.008 37.3 342.108 38.9C341.708 39.5 341.208 40.5 340.708 40.7C339.608 41.1 338.608 40.8 337.308 41.1C337.808 39.7 339.708 38 339.308 37.4C338.908 36.9 338.508 36.3 338.008 36.8C336.808 38 335.408 39.5 334.408 41.1C333.808 42 333.308 43.1 332.908 43.9C332.608 44.5 332.508 44.8 333.108 45C333.608 45.5 334.108 45.1 334.308 44.9C335.008 44.3 335.308 43.5 335.708 43.1C336.208 42.5 336.408 42 337.108 41.6C337.808 41.2 339.708 41.3 340.408 41.2C339.008 43.5 337.108 48.4 338.808 50.5C339.708 51.6 341.108 51.8 342.608 51C346.408 48.9 349.808 44.2 353.808 42.2V41.7ZM358.53 35.8C357.33 36.9 350.43 44.4 354.53 46.2C355.13 46.5 356.33 46.2 357.23 45.4C358.23 44.6 359.13 43.8 360.03 43C361.93 41.1 360.23 43.9 360.03 44.9C359.23 47.3 358.93 53.9 363.83 52.5C368.03 50.9 371.83 46.9 375.43 43.9C377.63 42 379.03 40.3 374.93 43.8C372.43 45.7 366.23 52.1 362.63 52.2C358.53 52.2 362.53 44.9 363.33 43.4C365.03 40.7 366.83 38.2 368.93 35.7C370.63 33.6 368.63 32.9 366.33 35.4C364.93 36.9 363.63 38.3 362.33 39.9C360.73 41.7 356.93 45.9 355.23 46C354.03 45.8 354.73 44.2 355.03 43.7C356.63 41.2 358.43 39 360.33 36.6C361.53 35.4 359.53 34.9 358.53 35.8ZM384.768 37.1C383.868 35.8 388.868 31.1 392.268 29.6C394.068 28.8 391.268 34.5 388.268 36.8C387.068 37.8 385.668 37.8 384.768 37.1ZM391.368 37.4C389.868 39.2 388.368 41 387.168 42.5C384.168 46.1 382.068 49.7 381.168 54.2C380.868 56 381.168 57.5 382.668 58.7C384.168 59.6 385.668 59 386.868 58.1C388.668 56.9 390.168 55.4 391.968 53.9C395.868 50.6 399.468 47.3 403.368 43.7C403.668 43.4 405.168 42 405.168 42C405.168 41.7 404.868 41.7 404.868 41.4C402.468 43.5 398.868 46.7 396.768 48.8C393.168 51.8 389.568 54.8 386.268 57.8C385.368 58.4 384.168 59 383.268 58.1C382.068 57.2 382.368 56.3 382.668 55.1C383.568 53.3 384.468 51.2 385.668 49.4C387.468 46.4 389.568 43.7 391.368 40.7C393.468 37.7 392.868 37.1 389.568 36.5C390.768 34.7 392.268 32.9 393.168 30.8C393.768 29.6 392.868 28.8 391.668 29C388.068 29.5 384.868 31.7 383.368 35C382.468 36.8 383.868 38 385.668 38C386.268 38 386.568 38 386.868 38C384.768 40.1 382.368 42.1 380.268 43.6C379.568 44.1 378.468 44.7 378.468 44C378.468 43.1 378.768 42.5 379.068 41.3C379.368 40.1 376.668 41.1 376.668 42.3C376.668 42.9 376.868 43.7 377.468 44.3C378.468 45.3 380.668 44.2 381.468 43.4C383.568 41.6 385.668 40.1 387.468 38.3C387.968 37.9 388.568 37.5 388.968 37.1C389.468 36.6 390.368 37.1 391.368 37.4Z" fill="#6D6D6D" fill-opacity="0.2"></path> </svg> 