<?xml version="1.0" encoding="UTF-8"?> <svg xmlns="http://www.w3.org/2000/svg" width="269" height="81" viewBox="0 0 269 81" fill="none"> <path d="M79.4398 41.6C75.6398 44.4 55.5398 72.7 51.1398 75.7C44.3398 80.9 43.2398 72 44.2398 68.8C44.9398 66.3 45.9398 63.8 46.8398 61.4C47.2398 60.5 47.5398 59.7 47.9398 58.8C49.0398 56.6 50.0398 54.5 51.1398 52.3C52.8398 49.2 54.5398 46 56.2398 42.9C57.5398 40.7 58.9398 38.4 60.3398 36.3C61.7398 33.9 63.4398 31.7 64.9398 29.3C67.1398 26 69.2398 22.8 71.4398 19.6C72.6398 17.8 73.7398 16.2 74.6398 14.4C75.7398 12.8 76.6398 11.1 77.5398 9.2C78.1398 8 78.5398 6.6 78.8398 5.3C80.0398 0.799995 72.0398 4.7 70.8398 5.5C64.4398 9 51.8398 21.2 44.8398 29.8C43.2398 31.9 41.2398 35 39.2398 36.9C40.3398 34.3 42.4398 30.4 43.9398 27.9C47.7398 21.2 51.2398 14.5 56.2398 7C57.0398 5.8 60.4398 0.699996 59.3398 0.9C58.7398 0.9 58.4398 1.1 57.9398 1.7C55.7398 4.2 54.3398 7.4 51.8398 9.4C50.6398 10.2 49.2398 11.1 47.9398 11.9C47.1398 12.6 46.1398 13.1 45.2398 13.6C44.0398 14.4 42.8398 15.1 41.6398 15.8C33.5398 20.4 13.5398 29.2 6.43984 37.5C4.53984 39.6 2.33984 42.1 0.839843 44.7C0.539843 45.2 0.339844 45.4 0.639843 46.1C2.33984 43.6 4.43984 40.5 7.33984 37.4C13.0398 29.9 40.1398 17.5 41.9398 16.3C44.3398 15.2 46.7398 13.7 49.3398 12C49.5398 11.9 51.2398 10.6 51.4398 10.6C50.8398 11.8 49.1398 14 48.4398 15.1C47.1398 17.1 45.9398 19.1 44.7398 21C43.9398 22.4 43.3398 23.7 42.5398 24.9C42.0398 25.8 41.5398 26.8 41.0398 27.7C39.6398 30.2 38.2398 32.9 36.9398 35.4C32.9398 42.5 29.7398 50.1 26.5398 57.4C25.8398 59.5 25.1398 61.5 24.3398 63.5C23.9398 64.4 24.3398 65 24.8398 65.7C25.2398 66.1 26.2398 66 26.4398 65.4C27.1398 63 28.1398 60.7 29.1398 58.2C30.0398 56.6 37.3398 40.8 38.2398 39.8C39.3398 38.3 40.4398 36.7 41.5398 35.2C42.4398 33.9 43.2398 32.7 44.1398 31.5C49.8398 24.2 64.8398 8.1 73.6398 4.6C74.5398 4.09999 77.8398 2.6 77.9398 4.4C77.9398 5.3 77.2398 6.3 76.7398 7.2C74.6398 10.4 72.5398 13.7 70.1398 16.8C68.6398 18.9 67.2398 20.9 65.7398 23C63.9398 25.5 62.2398 28.1 60.4398 30.7C60.0398 31.4 59.4398 32.1 58.9398 32.8C58.2398 33.8 57.6398 34.7 57.0398 35.6C56.2398 36.8 55.5398 38.1 54.7398 39.3C53.5398 41.3 52.3398 43.4 51.2398 45.5C50.2398 47.1 49.4398 48.6 48.6398 50.2C47.4398 52.7 46.3398 55.1 45.2398 57.6C44.0398 60.3 43.2398 63.2 42.4398 66.1C40.8398 71.9 43.3398 80.1 49.6398 77.3C51.1398 76.5 52.4398 75.5 53.5398 74.3C58.3398 69.3 75.2398 45.8 79.5398 42.1L79.4398 41.6ZM95.1766 42.2C97.8766 40.9 95.9766 42.5 94.6766 42.8C92.6766 43.6 90.6766 43.9 88.6766 44.1C87.7766 44.2 86.9766 44.3 85.9766 44.1C84.6766 46.1 82.9766 48.1 81.0766 49.4C79.8766 50.2 77.8766 50 77.2766 48.7C76.6766 46.6 78.2766 43.7 79.4766 42.3L80.5766 40.8C78.0766 37.2 79.4766 31.9 84.2766 31.3C89.5766 30.7 89.2766 39.4 86.1766 43.7C86.3766 43.7 86.5766 43.8 86.8766 43.8C89.6766 43.8 92.4766 43.3 95.1766 42.2ZM81.7766 32.6C79.7766 34.2 78.7766 37.8 80.9766 40.4C82.1766 39.3 83.2766 38.2 84.5766 37.6C85.7766 37.1 85.7766 38.6 85.1766 39.2C84.4766 39.9 83.8766 40.6 83.1766 41.4L82.6766 42C82.9766 42.2 83.5766 42.8 84.1766 43.1C84.7766 43.4 85.4766 43.6 85.7766 43.6C88.7766 40.4 89.7766 28 81.7766 32.6ZM85.4766 44C85.1766 44 84.4766 43.7 83.8766 43.4C83.2766 43.1 82.6766 42.6 82.3766 42.4C82.2766 42.5 81.8766 43 81.3766 43.8C80.3766 45.4 79.3766 46.7 79.0766 48.1C78.9766 49.2 79.5766 49.9 81.0766 48.9C82.5766 48 83.7766 46.4 84.7766 45L85.4766 44ZM96.6805 48.6C97.1805 48.8 98.6805 49.2 103.98 44.1C104.88 43.3 107.88 41.4 108.78 40.8C109.08 40.6 110.08 40.2 110.08 40.3C109.78 41.4 107.88 45.1 107.38 46C107.58 46.3 108.08 46.4 108.38 46.4C110.68 44.3 113.48 42 116.38 41.3C114.78 43.7 113.78 46.6 113.18 49.2C112.38 52.4 113.58 54.6 115.88 54.4C120.58 53.9 125.18 46.4 127.38 44.1C128.18 43.2 128.88 42.5 129.98 42.3C130.08 42.3 130.28 42 130.38 41.9C130.38 41.8 130.28 41.8 130.28 41.8C129.48 42.1 128.78 42.2 128.28 42.8C124.78 45.7 120.98 53.1 116.58 53.8C112.38 54.2 117.88 43.9 119.78 40.3C120.98 38.4 122.48 36.6 123.98 35.4C125.28 34.4 125.38 36.2 124.78 37C124.68 37.1 124.98 37.2 124.98 37.2C126.48 35.8 125.08 33.9 123.38 34.2C122.48 34.3 121.68 34.9 121.08 35.4C119.78 36.5 118.58 37.8 117.58 39.3C116.48 40.7 116.28 40.9 115.08 41.4C113.78 41.8 111.18 43.6 111.08 43.5C110.68 43 115.48 37.9 113.18 37.7C111.08 38.8 110.38 39.8 108.58 40.7C105.78 42.1 105.58 43 106.18 41.4C106.68 40.1 108.28 38.4 108.28 37.1C108.28 35.3 107.38 35 105.98 35.1C103.08 35.3 98.3805 39.7 95.9805 41.9C95.7805 41.9 95.7805 42.3 95.7805 42.5C98.7805 39.9 103.68 35 105.98 36C107.48 36.7 103.18 41.8 102.38 42.6C101.78 43.4 95.3805 48.2 96.6805 48.6ZM97.0805 48.1C96.5805 48.1 98.0805 46.7 99.0805 45.9C99.8805 45.4 100.28 44.8 100.98 45.1C101.48 45.4 98.8805 48.1 97.0805 48.1ZM140.96 32.9C135.56 32 131.66 38.6 129.66 42.7C128.66 44.7 128.46 49.6 131.66 50.2C132.66 50.3 133.66 50.1 134.46 49.4C137.96 46.5 142.66 44.5 146.96 42.2C147.66 41.8 147.16 41.6 146.66 41.9C142.56 44.1 138.56 45.7 135.16 48.4C134.06 49.2 133.36 50 132.06 49.9C128.56 49.9 133.26 37.8 137.46 37.3C141.06 37.1 144.06 33.2 140.96 32.9ZM140.76 33.7C142.96 33.3 141.46 35.1 140.66 35.6C139.46 36.7 136.26 37.4 136.96 36.7L137.56 36.1C138.46 35.1 139.46 34 140.76 33.7ZM145.762 44.6C145.962 45.5 146.862 46.5 148.362 45.5C149.262 44.9 150.162 44.2 150.962 43.5C153.362 40.9 156.162 38.5 159.062 36.4C159.662 36 161.562 34.7 162.362 34.7C160.962 36.6 155.762 44.1 154.562 46.4C153.362 48.5 152.462 51.1 152.862 53.5C153.462 57.5 156.462 58 159.962 55.5C161.262 54.8 169.062 45.9 171.262 44.4C172.062 43.8 172.762 43.1 173.762 42.8C174.662 42.3 176.862 41.2 174.262 42.1C173.062 42.7 171.962 43.3 170.962 44.2C168.262 46.4 164.362 50.5 161.762 53.5C155.162 60 151.362 55.9 156.662 47.8C159.462 43.1 162.762 38.4 165.962 34.6C168.162 32.3 163.562 33.7 162.762 34C161.362 34.5 159.962 35.1 158.762 36C156.062 38.2 153.262 40.4 150.762 43C150.062 43.8 149.062 44.5 148.162 45.1C147.862 45.3 147.562 45.5 147.262 45.2C146.662 44.4 149.062 42.7 147.762 42C146.262 41.1 145.362 43.4 145.762 44.6ZM176.684 44.9C177.684 44.6 178.884 43.8 179.984 43.3C179.584 43.9 179.284 44.7 178.984 45.3C177.284 48.9 177.084 55.6 183.184 51.3C185.584 49.7 187.984 47.8 190.384 46.2C192.284 44.8 193.584 43.9 195.984 42.8C198.084 41.4 197.684 41.4 194.584 43C191.584 44.6 188.884 46.7 186.184 48.8C183.584 50.6 178.084 55.1 179.584 49.8C181.584 44.9 184.984 41 188.284 37C188.984 35.9 187.284 35.5 186.684 36C185.684 36.8 185.384 37.4 184.484 38.1C183.884 38.6 183.684 38.8 183.684 38.7C183.584 36.7 180.384 36.9 177.784 38.8C176.584 39.8 174.284 41.6 174.584 43.8C174.784 45 175.484 45.3 176.684 44.9ZM180.584 38.3C181.884 36.9 184.084 37.7 182.984 39.5C181.284 41.7 179.684 43.4 176.684 44.6C175.684 45.1 175.784 44.2 176.084 43.7C177.384 41.8 179.084 40 180.584 38.3ZM216.662 41.7C216.662 41.5 212.462 44.6 210.862 46.1C209.362 47.5 205.462 51.7 203.162 51.1C200.762 50.3 202.962 46.8 204.162 44.4C205.862 41.3 208.162 38.3 209.962 35.1C210.362 34.4 208.862 34.1 208.462 34.6C207.162 36 205.862 37.3 204.962 38.9C204.562 39.5 204.062 40.5 203.562 40.7C202.462 41.1 201.462 40.8 200.162 41.1C200.662 39.7 202.562 38 202.162 37.4C201.762 36.9 201.362 36.3 200.862 36.8C199.662 38 198.262 39.5 197.262 41.1C196.662 42 196.162 43.1 195.762 43.9C195.462 44.5 195.362 44.8 195.962 45C196.462 45.5 196.962 45.1 197.162 44.9C197.862 44.3 198.162 43.5 198.562 43.1C199.062 42.5 199.262 42 199.962 41.6C200.662 41.2 202.562 41.3 203.262 41.2C201.862 43.5 199.962 48.4 201.662 50.5C202.562 51.6 203.962 51.8 205.462 51C209.262 48.9 212.662 44.2 216.662 42.2V41.7ZM221.384 35.8C220.184 36.9 213.284 44.4 217.384 46.2C217.984 46.5 219.184 46.2 220.084 45.4C221.084 44.6 221.984 43.8 222.884 43C224.784 41.1 223.084 43.9 222.884 44.9C222.084 47.3 221.784 53.9 226.684 52.5C230.884 50.9 234.684 46.9 238.284 43.9C240.484 42 241.884 40.3 237.784 43.8C235.284 45.7 229.084 52.1 225.484 52.2C221.384 52.2 225.384 44.9 226.184 43.4C227.884 40.7 229.684 38.2 231.784 35.7C233.484 33.6 231.484 32.9 229.184 35.4C227.784 36.9 226.484 38.3 225.184 39.9C223.584 41.7 219.784 45.9 218.084 46C216.884 45.8 217.584 44.2 217.884 43.7C219.484 41.2 221.284 39 223.184 36.6C224.384 35.4 222.384 34.9 221.384 35.8ZM247.621 37.1C246.721 35.8 251.721 31.1 255.121 29.6C256.921 28.8 254.121 34.5 251.121 36.8C249.921 37.8 248.521 37.8 247.621 37.1ZM254.221 37.4C252.721 39.2 251.221 41 250.021 42.5C247.021 46.1 244.921 49.7 244.021 54.2C243.721 56 244.021 57.5 245.521 58.7C247.021 59.6 248.521 59 249.721 58.1C251.521 56.9 253.021 55.4 254.821 53.9C258.721 50.6 262.321 47.3 266.221 43.7C266.521 43.4 268.021 42 268.021 42C268.021 41.7 267.721 41.7 267.721 41.4C265.321 43.5 261.721 46.7 259.621 48.8C256.021 51.8 252.421 54.8 249.121 57.8C248.221 58.4 247.021 59 246.121 58.1C244.921 57.2 245.221 56.3 245.521 55.1C246.421 53.3 247.321 51.2 248.521 49.4C250.321 46.4 252.421 43.7 254.221 40.7C256.321 37.7 255.721 37.1 252.421 36.5C253.621 34.7 255.121 32.9 256.021 30.8C256.621 29.6 255.721 28.8 254.521 29C250.921 29.5 247.721 31.7 246.221 35C245.321 36.8 246.721 38 248.521 38C249.121 38 249.421 38 249.721 38C247.621 40.1 245.221 42.1 243.121 43.6C242.421 44.1 241.321 44.7 241.321 44C241.321 43.1 241.621 42.5 241.921 41.3C242.221 40.1 239.521 41.1 239.521 42.3C239.521 42.9 239.721 43.7 240.321 44.3C241.321 45.3 243.521 44.2 244.321 43.4C246.421 41.6 248.521 40.1 250.321 38.3C250.821 37.9 251.421 37.5 251.821 37.1C252.321 36.6 253.221 37.1 254.221 37.4Z" fill="#6D6D6D" fill-opacity="0.2"></path> </svg> 